<svg xmlns="http://www.w3.org/2000/svg" viewBox="0 0 800.02 370.05" fill="currentColor"><path d="M787.02,175.78c-18.16-6.05-76.07-7.36-151.56-6l3.49,3.49c-28.86,28.91-92.1,32.64-123.09,32.64-9.98,0-16.61-.44-17.58-.48l-244.39.05v-7.89c-13.22-.05-163.04-.53-176.31.34-27.02,1.79-51.28,51.76-65.23,87.26l-7.17,19.42c-3.34,9.64-5.18,15.88-5.18,15.88h127.93c-.63.58-1.21,1.21-1.74,1.69-8.47,7.02-22.61,8.52-33.07,8.52-9.35,0-16.8-1.21-18.06-1.4l-3.44-.29c-9.06,0-16.85,6.44-18.5,15.3-1.94,10.17,4.79,20,14.96,21.98,1.07.19,11.14,1.99,24.6,1.99,16.75,0,40.34-2.95,57.43-17.14.87-.68,1.69-1.4,2.52-2.18.63.58,1.26,1.11,1.94,1.69,18.06,15.06,47.45,18.16,69,18.16,7.02,0,11.82-.39,11.86-.39l21.69-.19c16.8,0,40.34-2.95,57.43-17.14.87-.68,1.74-1.4,2.52-2.18.63.58,1.26,1.11,1.94,1.69,20.39,17.04,50.26,19.47,66.24,19.47,6.59,0,12.06-.39,15.01-.77.82.1,1.74.1,2.91.1l6.3-.1c3.49-.1,7.8-.19,12.64-.19,10.75,0,37.77-1.69,57.48-18.06.87-.68,1.69-1.4,2.52-2.18.68.58,1.26,1.11,1.94,1.69,18.06,15.06,47.45,18.16,69,18.16,7.07,0,11.77-.39,11.86-.39l21.69-.19c16.8,0,40.34-2.95,57.43-17.14.92-.68,1.69-1.4,2.57-2.18.63.58,1.21,1.11,1.89,1.69,30.6,25.52,80.82,16.08,83.38,15.59,10.17-1.89,17-11.62,15.16-21.84-1.65-9.01-9.39-15.5-18.55-15.5l-3.29.39c-3.63.68-10.07,1.31-17.38,1.31-15.79,0-28.28-3.1-35.16-8.91-2.76-2.28-6.1-6.44-7.07-14.96,52.35-32.35,174.28-113.21,121.45-130.79ZM236.31,335.82c-24.45,0-47.6-5.67-57.62-14.09-.44-.29-.87-.87-1.31-1.21h114.96c-.58.58-1.16,1.21-1.74,1.69-10.27,8.52-30.56,13.61-54.28,13.61ZM401.82,333.01c-29.39,0-52.2-5.76-58.69-11.23-.44-.29-.87-.87-1.31-1.21h115.49c-.58.58-1.16,1.21-1.74,1.69-7.89,6.49-28.96,10.75-53.75,10.75ZM565.73,335.82c-24.45,0-47.6-5.67-57.62-14.09-.44-.29-.87-.87-1.31-1.21h114.96c-.58.58-1.16,1.21-1.69,1.69-10.31,8.52-30.6,13.61-54.33,13.61Z"/><path d="M214.32,90.55c39.76-3.49,51.43,82.95,37.96,105.42l256.69-10.31c1.4.1,80.09-5.04,116.02-35.11l-92.83-83.97H216.11L130.21,4.16,110.79,0l68.66,66.58h-68.66s0,27.65,103.53,23.97ZM515.47,94.23l49.88,41.89h-77.62l11.09-41.89h16.66ZM447.53,94.23h40.19l-11.09,41.89h-40.14l11.04-41.89ZM433.68,94.23l-11.09,41.89h-48.52l11.09-41.89h48.52ZM353.59,94.23h20.48l-11.04,41.89h-55.44c-5.52-46.78,46-41.89,46-41.89Z"/></svg>