<?xml version="1.0" encoding="UTF-8"?><svg id="Layer_2" xmlns="http://www.w3.org/2000/svg" width="468.87" height="129.9" viewBox="0 0 468.87 129.9"><g id="Layer_1-2"><polygon points="14.43 57.73 0 57.73 0 0 57.73 0 57.73 14.43 14.43 14.43 14.43 57.73"/><rect x="6.7" y="57.73" width="116.49" height="14.43" transform="translate(-26.9 64.95) rotate(-45)"/><polygon points="129.9 129.9 72.17 129.9 72.17 115.47 115.47 115.47 115.47 72.17 129.9 72.17 129.9 129.9"/><path d="M173.09,106.96V23.17h14.96v34.58h38.8V23.17h14.96v83.79h-14.96v-36.44h-38.8v36.44h-14.96Z"/><path d="M286.96,108.3c-6.75,0-12.56-1.09-17.43-3.26-4.87-2.17-8.64-5.31-11.3-9.42s-4.05-9.04-4.16-14.82h14.68c.11,3.19.94,5.88,2.47,8.07,1.54,2.19,3.66,3.86,6.35,5,2.7,1.14,5.83,1.72,9.39,1.72s6.39-.5,8.94-1.49c2.55-.99,4.54-2.4,5.99-4.22,1.44-1.82,2.17-3.94,2.17-6.38,0-2.06-.57-3.81-1.71-5.26-1.14-1.44-2.85-2.69-5.12-3.74-2.27-1.05-5.11-1.97-8.52-2.76l-9.22-2.25c-7.76-1.84-13.62-4.61-17.57-8.32s-5.93-8.53-5.93-14.45c0-4.95,1.3-9.29,3.91-13.02,2.61-3.73,6.22-6.63,10.85-8.69,4.63-2.06,9.96-3.09,16-3.09s11.42,1.05,15.94,3.15c4.52,2.1,8.04,5.07,10.57,8.91,2.53,3.84,3.87,8.33,4.02,13.47h-14.34c-.3-4.05-1.91-7.21-4.84-9.48-2.92-2.27-6.77-3.4-11.53-3.4-3.11,0-5.84.49-8.18,1.46-2.34.98-4.16,2.31-5.46,4.02-1.29,1.71-1.94,3.67-1.94,5.88s.61,3.86,1.83,5.29c1.22,1.43,2.93,2.62,5.15,3.6,2.21.98,4.84,1.82,7.87,2.53l8.21,1.97c3.79.86,7.21,1.97,10.26,3.32s5.68,2.98,7.87,4.89c2.19,1.91,3.87,4.14,5.03,6.69,1.16,2.55,1.74,5.49,1.74,8.83,0,5.06-1.29,9.48-3.85,13.27-2.57,3.79-6.24,6.73-11.02,8.83s-10.49,3.15-17.12,3.15Z"/><path d="M331.21,106.96V23.17h55.16v12.77h-40.21v23.9h36.89v12.54h-36.89v34.58h-14.96Z"/><path d="M392.17,106.96l33.96-48.36v11.19l-31.55-46.62h17.15l10.23,15.41c1.46,2.21,2.76,4.27,3.91,6.19,1.14,1.91,2.24,3.8,3.29,5.65,1.05,1.86,2.16,3.78,3.32,5.76h-3.6c1.16-1.99,2.28-3.91,3.35-5.76,1.07-1.86,2.19-3.74,3.37-5.65,1.18-1.91,2.48-3.97,3.91-6.19l10.46-15.41h16.76l-31.15,45.89v-10.8l33.29,48.7h-17.43l-12.71-18.89c-1.31-1.95-2.48-3.73-3.51-5.34-1.03-1.61-2.02-3.21-2.95-4.78-.94-1.57-1.93-3.26-2.98-5.06h2.53c-1.01,1.76-2.01,3.43-2.98,5-.97,1.57-1.98,3.18-3.01,4.81-1.03,1.63-2.22,3.42-3.57,5.37l-12.99,18.89h-17.09Z"/></g></svg>