<?xml version="1.0" encoding="UTF-8"?><svg id="Layer_2" xmlns="http://www.w3.org/2000/svg" width="2035.87" height="500.11" viewBox="0 0 2035.87 500.11"><defs><style>.cls-1{fill:#fff;}</style></defs><g id="Layer_1-2"><polygon class="cls-1" points="577.47 250.05 548.6 300.06 519.73 350.08 519.72 350.08 461.98 450.1 433.1 500.11 259.86 500.11 288.73 450.1 346.48 450.1 375.35 400.09 375.36 400.09 404.23 350.08 404.23 350.07 433.1 300.07 433.1 300.06 461.97 250.05 461.98 250.05 490.85 200.04 461.98 150.03 490.85 100.02 519.72 150.02 519.72 150.03 519.73 150.03 548.6 200.04 577.47 250.05"/><path class="cls-1" d="M433.11,0h-57.76l-57.74,100.02h-57.75l-28.87,50.01-28.88,50.01-28.87,50.01h0s-28.87,50.01-28.87,50.01h-.01l28.87,50.01h0s-28.87,50.01-28.87,50.01h0s-28.87,50.01-28.87,50.01h0s28.88,50.02,28.88,50.02h57.75l28.87-50.01,28.87-50.01h57.75l28.87-50.01,28.88-50.01h0s28.87-50.01,28.87-50.01h0s28.87-50.02,28.87-50.02l-28.87-50.01,57.74-100.02h.01S433.11,0,433.11,0ZM259.86,300.07h-.01s.02-.01.02-.01h-.01ZM288.74,250.06h-.01s.01-.01.01-.01h0Z"/><polygon class="cls-1" points="317.61 0 288.73 50.01 230.98 50.01 173.24 150.03 173.23 150.03 144.36 200.04 115.49 250.05 86.62 300.06 115.49 350.07 115.49 350.08 86.62 400.08 57.75 350.08 57.74 350.08 57.74 350.07 28.87 300.06 0 250.05 28.87 200.04 57.74 150.03 86.61 100.02 86.62 100.02 115.49 50.01 144.36 0 317.61 0"/><path class="cls-1" d="M896,37.89v156.36h68.04V37.89h111.01v426.12h-111.01v-175.46h-68.04v175.46h-111.01V37.89h111.01Z"/><path class="cls-1" d="M1293.46,150.69c0-12.73-2.59-23.57-7.76-32.53-5.18-8.95-13.13-13.43-23.87-13.43-11.94,0-20.69,3.88-26.26,11.64-5.58,7.76-8.36,16.41-8.36,25.96,0,13.93,4.48,24.97,13.43,33.12,8.95,8.16,20.19,15.22,33.72,21.19,13.52,5.97,28.05,12.04,43.57,18.2,15.52,6.17,30.04,14.23,43.57,24.17,13.52,9.95,24.77,22.98,33.72,39.09,8.95,16.11,13.43,37.1,13.43,62.96,0,45.36-12.93,78.28-38.79,98.77-25.87,20.5-63.26,30.74-112.2,30.74-23.08,0-43.47-1.89-61.17-5.67-17.71-3.78-32.63-10.34-44.76-19.69-12.14-9.34-21.39-21.58-27.75-36.7-6.37-15.12-9.55-33.81-9.55-56.1v-14.92h107.42v10.15c0,18.3,3.38,31.14,10.15,38.49,6.76,7.37,15.52,11.04,26.26,11.04,11.53,0,20.38-3.97,26.56-11.94,6.16-7.95,9.25-17.7,9.25-29.24,0-13.92-4.28-24.96-12.83-33.12-8.56-8.15-19.3-15.12-32.23-20.89-12.93-5.76-26.96-11.64-42.07-17.61-15.13-5.97-29.15-13.73-42.07-23.28-12.93-9.55-23.68-22.08-32.23-37.6-8.56-15.52-12.83-35.81-12.83-60.87,0-43.36,11.53-76.39,34.61-99.07,23.07-22.68,58.09-34.02,105.04-34.02s83.65,10.44,105.34,31.33c21.68,20.89,32.53,54.22,32.53,99.96h-103.84v-10.15Z"/><path class="cls-1" d="M1700.48,37.89v90.71h-141.44v72.81h132.49v87.13h-132.49v175.46h-111.01V37.89h252.45Z"/><path class="cls-1" d="M1832.96,37.89l35.21,123.54h1.19l35.21-123.54h124.14l-92.5,210.08,99.67,216.04h-124.13l-42.37-128.31h-1.19l-42.37,128.31h-122.34l99.07-216.04-93.7-210.08h124.13Z"/></g></svg>